<?xml version="1.0" encoding="utf-8"?>
<!-- Generator: Adobe Illustrator 16.0.0, SVG Export Plug-In . SVG Version: 6.00 Build 0)  -->
<!DOCTYPE svg PUBLIC "-//W3C//DTD SVG 1.1//EN" "http://www.w3.org/Graphics/SVG/1.1/DTD/svg11.dtd">
<svg version="1.1" id="Layer_1" xmlns="http://www.w3.org/2000/svg" xmlns:xlink="http://www.w3.org/1999/xlink" x="0px" y="0px"
	 width="255.118px" height="141.732px" viewBox="0 0 255.118 141.732" enable-background="new 0 0 255.118 141.732"
	 xml:space="preserve">
<g>
	<path fill="#0BC0AA" d="M20.485,76.291c2.94-0.528,7.319-0.924,12.179-0.924c6,0,10.2,0.99,13.08,3.498
		c2.4,2.112,3.72,5.214,3.72,9.305c0,5.676-3.66,9.569-7.14,10.955v0.198c2.82,1.254,4.38,4.224,5.4,8.315
		c1.26,5.016,2.52,10.823,3.3,12.539h-9.359c-0.66-1.254-1.62-4.884-2.82-10.361c-1.08-5.543-2.82-7.061-6.54-7.127h-2.76v17.488
		h-9.06V76.291z M29.545,95.429h3.6c4.56,0,7.26-2.508,7.26-6.401c0-4.091-2.52-6.137-6.72-6.203c-2.22,0-3.479,0.198-4.14,0.33
		V95.429z"/>
	<path fill="#0BC0AA" d="M61.782,107.242c0.3,4.158,4.02,6.138,8.279,6.138c3.12,0,5.64-0.462,8.1-1.32l1.2,6.797
		c-3,1.32-6.66,1.98-10.619,1.98c-9.96,0-15.66-6.335-15.66-16.433c0-8.184,4.62-17.225,14.82-17.225
		c9.479,0,13.079,8.117,13.079,16.103c0,1.716-0.18,3.234-0.3,3.959H61.782z M72.521,100.378c0-2.442-0.96-6.533-5.159-6.533
		c-3.84,0-5.4,3.828-5.64,6.533H72.521z"/>
	<path fill="#0BC0AA" d="M102.42,120.177l-0.54-3.234h-0.18c-1.92,2.574-4.92,3.96-8.399,3.96c-5.939,0-9.479-4.752-9.479-9.899
		c0-8.381,6.84-12.407,17.219-12.341v-0.462c0-1.716-0.84-4.158-5.34-4.158c-3,0-6.18,1.122-8.1,2.442l-1.68-6.467
		c2.04-1.254,6.06-2.838,11.399-2.838c9.779,0,12.899,6.335,12.899,13.925v11.219c0,3.102,0.12,6.072,0.42,7.854H102.42z
		 M101.34,104.932c-4.8-0.066-8.52,1.188-8.52,5.082c0,2.574,1.561,3.828,3.601,3.828c2.279,0,4.14-1.65,4.739-3.696
		c0.12-0.528,0.18-1.122,0.18-1.716V104.932z"/>
	<path fill="#0BC0AA" d="M116.484,73.321h9.119v46.856h-9.119V73.321z"/>
	<path fill="#0BC0AA" d="M141.443,78.93c0,2.772-1.92,5.016-4.92,5.016c-2.879,0-4.799-2.244-4.739-5.016
		c-0.06-2.904,1.86-5.082,4.8-5.082S141.384,76.026,141.443,78.93z M132.024,120.177V87.906h9.119v32.271H132.024z"/>
	<path fill="#0BC0AA" d="M157.745,78.667v9.239h6.54v7.391h-6.54v11.681c0,3.894,0.84,5.675,3.6,5.675c1.141,0,2.04-0.132,2.7-0.264
		l0.06,7.589c-1.199,0.528-3.359,0.858-5.939,0.858c-2.939,0-5.399-1.122-6.84-2.772c-1.68-1.914-2.52-5.016-2.52-9.569V95.297h-3.9
		v-7.391h3.9V80.91L157.745,78.667z"/>
	<path fill="#0BC0AA" d="M176.669,87.906l4.38,15.838c0.479,1.914,1.079,4.29,1.439,6.005h0.18c0.42-1.716,0.9-4.158,1.32-6.005
		l3.6-15.838h9.779l-6.839,21.25c-4.2,12.803-7.021,17.95-10.32,21.185c-3.18,3.035-6.539,4.092-8.819,4.422l-1.92-8.514
		c1.14-0.198,2.58-0.793,3.96-1.717c1.38-0.792,2.88-2.375,3.78-4.025c0.3-0.462,0.479-0.99,0.479-1.452
		c0-0.33-0.06-0.858-0.42-1.65l-10.739-29.499H176.669z"/>
</g>
<g>
	<path fill="#00A98E" d="M71.403,64.314l-12.959-44.48h10.02l4.92,18.808c1.38,5.28,2.64,10.361,3.6,15.905h0.18
		c1.02-5.346,2.28-10.625,3.66-15.707l5.16-19.006h9.72l-13.619,44.48H71.403z"/>
	<path fill="#00A98E" d="M108.369,23.067c0,2.772-1.92,5.016-4.92,5.016c-2.88,0-4.8-2.244-4.74-5.016
		c-0.06-2.904,1.86-5.082,4.8-5.082S108.309,20.164,108.369,23.067z M98.949,64.314V32.043h9.12v32.271H98.949z"/>
	<path fill="#00A98E" d="M114.482,42.668c0-4.751-0.12-7.854-0.24-10.625h7.859l0.3,5.939h0.24c1.5-4.686,5.1-6.666,7.92-6.666
		c0.84,0,1.26,0,1.92,0.132v9.438c-0.66-0.132-1.44-0.264-2.46-0.264c-3.359,0-5.64,1.98-6.24,5.082
		c-0.119,0.66-0.18,1.452-0.18,2.244v16.367h-9.12V42.668z"/>
	<path fill="#00A98E" d="M147.649,22.804v9.239h6.54v7.391h-6.54v11.681c0,3.894,0.84,5.675,3.6,5.675c1.141,0,2.04-0.132,2.7-0.264
		l0.06,7.589c-1.199,0.528-3.359,0.858-5.939,0.858c-2.939,0-5.399-1.122-6.84-2.772c-1.68-1.914-2.52-5.016-2.52-9.569V39.434h-3.9
		v-7.391h3.9v-6.996L147.649,22.804z"/>
	<path fill="#00A98E" d="M186.455,53.953c0,4.224,0.12,7.656,0.24,10.361h-7.92l-0.42-4.554h-0.18c-1.14,1.98-3.899,5.28-9.18,5.28
		c-5.939,0-10.319-4.092-10.319-14.057v-18.94h9.18v17.356c0,4.686,1.38,7.523,4.56,7.523c2.52,0,3.96-1.914,4.56-3.498
		c0.24-0.594,0.3-1.386,0.3-2.178V32.043h9.18V53.953z"/>
	<path fill="#00A98E" d="M209.699,64.314l-0.54-3.234h-0.18c-1.92,2.574-4.92,3.96-8.399,3.96c-5.939,0-9.479-4.752-9.479-9.899
		c0-8.381,6.84-12.407,17.219-12.341v-0.462c0-1.716-0.84-4.158-5.34-4.158c-3,0-6.18,1.122-8.1,2.442l-1.68-6.467
		c2.04-1.254,6.06-2.838,11.399-2.838c9.779,0,12.899,6.335,12.899,13.925V56.46c0,3.102,0.12,6.072,0.42,7.854H209.699z
		 M208.619,49.069c-4.8-0.066-8.52,1.188-8.52,5.082c0,2.574,1.561,3.828,3.601,3.828c2.279,0,4.14-1.65,4.739-3.696
		c0.12-0.528,0.18-1.122,0.18-1.716V49.069z"/>
	<path fill="#00A98E" d="M223.765,17.458h9.119v46.856h-9.119V17.458z"/>
</g>
</svg>
